<svg viewBox="0 0 48 48" xmlns="http://www.w3.org/2000/svg" fill="none">
  <defs>
    <linearGradient id="pgrad" x1="0%" y1="0%" x2="100%" y2="100%">
      <stop offset="0%" stop-color="#06b6d4"/>
      <stop offset="100%" stop-color="#4facfe"/>
    </linearGradient>
  </defs>
  <rect x="0" y="0" width="48" height="48" rx="10" fill="#0b1220"/>
  <path d="M16 36V12h8c2.2 0 4.1.8 5.7 2.3C31.2 15.8 32 17.7 32 20s-.8 4.2-2.3 5.7C28.1 27.2 26.2 28 24 28h-4v8h-4zm4-12h4c1.1 0 2-.4 2.8-1.2.8-.8 1.2-1.7 1.2-2.8s-.4-2-1.2-2.8C26 16.4 25.1 16 24 16h-4v8z" fill="url(#pgrad)"/>
</svg>
