<svg width="1440" height="960" viewBox="0 0 1440 960" fill="none" xmlns="http://www.w3.org/2000/svg">
  <defs><style>.bg{fill:#0F1315}.side{fill:#0C0F11;stroke:#ffffff1a}.panel{fill:#151A1D;stroke:#ffffff1a}.muted{fill:#9EADA9}.fg{fill:#F8FAFC}.accent{fill:#394E48}.green{fill:#6EE7B7}.small{font:600 13px 'Inter','Segoe UI',sans-serif}.tiny{font:600 11px 'Inter','Segoe UI',sans-serif}.h{font:700 22px 'Inter','Segoe UI',sans-serif}.body{font:400 15px 'Inter','Segoe UI',sans-serif}</style><filter id="shadow"><feDropShadow dx="0" dy="24" stdDeviation="28" flood-color="#000" flood-opacity="0.45"/></filter></defs>
  <rect width="1440" height="960" class="bg"/>
  <rect x="0" y="0" width="76" height="960" class="side"/><rect x="18" y="22" width="40" height="40" rx="12" class="accent"/><circle cx="38" cy="112" r="21" fill="#ffffff0d" stroke="#ffffff1a"/><circle cx="38" cy="170" r="21" fill="#394E482e" stroke="#394E48"/><circle cx="38" cy="228" r="21" fill="#ffffff0d" stroke="#ffffff1a"/><rect x="14" y="878" width="48" height="48" rx="18" fill="#ffffff0d" stroke="#ffffff1a"/><text x="19" y="907" class="green tiny">App</text>
  <rect x="76" y="0" width="1364" height="76" fill="#111719" stroke="#ffffff1a"/><text x="108" y="33" class="muted tiny">ACTIVE PRODUCT</text><text x="108" y="57" class="fg h">Mobile App Redesign Q3</text><rect x="1110" y="20" width="130" height="36" rx="13" fill="#ffffff0d" stroke="#ffffff1a"/><text x="1132" y="43" class="muted small">Research log</text><rect x="1254" y="20" width="42" height="36" rx="13" fill="#ffffff0d" stroke="#ffffff1a"/><text x="1268" y="43" class="muted small">☼</text><rect x="1310" y="20" width="42" height="36" rx="13" fill="#ffffff0d" stroke="#ffffff1a"/><text x="1322" y="43" class="muted small">⚙</text>
  <rect x="76" y="76" width="300" height="884" fill="#0C0F11" stroke="#ffffff1a"/><text x="108" y="124" class="muted tiny">PRODUCT FILES</text><rect x="108" y="146" width="236" height="42" rx="14" fill="#394E482e" stroke="#394E48"/><text x="130" y="172" class="fg small">Overview.md</text><rect x="108" y="200" width="236" height="42" rx="14" fill="#ffffff0a" stroke="#ffffff14"/><text x="130" y="226" class="muted small">PRD.md</text><rect x="108" y="254" width="236" height="42" rx="14" fill="#ffffff0a" stroke="#ffffff14"/><text x="130" y="280" class="muted small">Competitors.md</text><rect x="108" y="330" width="236" height="46" rx="15" class="accent"/><text x="138" y="359" class="fg small">+ New Product</text><rect x="108" y="742" width="236" height="120" rx="20" fill="#ffffff0a" stroke="#ffffff1a"/><text x="130" y="777" class="fg small">Active Provider</text><text x="130" y="802" class="muted tiny">Configure AI engines in App Settings</text><rect x="130" y="824" width="190" height="30" rx="12" fill="#ffffff0d" stroke="#ffffff1a"/><text x="172" y="844" class="muted tiny">Open App Settings</text>
  <rect x="376" y="76" width="1064" height="52" fill="#111719" stroke="#ffffff1a"/><rect x="398" y="88" width="142" height="30" rx="12" fill="#394E482e" stroke="#394E48"/><text x="418" y="108" class="fg tiny">Overview.md ×</text><rect x="552" y="88" width="122" height="30" rx="12" fill="#ffffff0a" stroke="#ffffff1a"/><text x="572" y="108" class="muted tiny">PRD.md ×</text><rect x="696" y="88" width="440" height="30" rx="15" fill="#ffffff0b" stroke="#ffffff1a"/><text x="716" y="108" class="muted tiny">✦ Open a product file, create an artifact, or ask Copilot to make it happen.</text>
  <rect x="410" y="164" width="646" height="700" rx="26" class="panel"/><text x="448" y="220" class="fg h">Overview</text><text x="448" y="252" class="muted body">Product context, goals, decisions, and artifacts now sit in a clearer product-first workspace.</text><rect x="448" y="292" width="570" height="110" rx="20" fill="#ffffff0a" stroke="#ffffff1a"/><text x="476" y="330" class="fg small">Next best action</text><text x="476" y="360" class="muted body">Ask Copilot to turn discovery notes into a PRD and workflow.</text><rect x="448" y="432" width="270" height="110" rx="20" fill="#ffffff0a" stroke="#ffffff1a"/><text x="476" y="470" class="fg small">Structured artifacts</text><text x="476" y="500" class="muted tiny">PRDs · Roadmaps · Insights</text><rect x="748" y="432" width="270" height="110" rx="20" fill="#ffffff0a" stroke="#ffffff1a"/><text x="776" y="470" class="fg small">Workflow automation</text><text x="776" y="500" class="muted tiny">Approval-aware repeatable tasks</text>
  <g filter="url(#shadow)"><rect x="1012" y="194" width="352" height="494" rx="28" fill="#0C0F11" stroke="#ffffff1a"/><rect x="1040" y="222" width="50" height="50" rx="16" fill="#394E482e"/><text x="1056" y="253" class="green small">＋</text><text x="1106" y="243" class="fg h">Create Product</text><text x="1106" y="268" class="muted tiny">Focused workspace for docs, research, skills, and workflows.</text><text x="1040" y="318" class="fg small">Product Name</text><rect x="1040" y="334" width="296" height="42" rx="12" fill="#151A1D" stroke="#ffffff1a"/><text x="1058" y="360" class="muted tiny">Mobile App Redesign Q3</text><text x="1040" y="410" class="fg small">Product Goal</text><rect x="1040" y="426" width="296" height="92" rx="12" fill="#151A1D" stroke="#ffffff1a"/><text x="1058" y="456" class="muted tiny">What should this product effort</text><text x="1058" y="477" class="muted tiny">deliver?</text><text x="1040" y="552" class="fg small">Starter skills</text><rect x="1040" y="568" width="170" height="36" rx="12" fill="#151A1D" stroke="#ffffff1a"/><text x="1058" y="591" class="muted tiny">Add custom capability...</text><rect x="1220" y="568" width="116" height="36" rx="12" fill="#ffffff0d" stroke="#ffffff1a"/><text x="1240" y="591" class="muted tiny">Registry ▾</text><rect x="1040" y="628" width="128" height="42" rx="14" fill="#ffffff0d" stroke="#ffffff1a"/><text x="1078" y="654" class="muted small">Cancel</text><rect x="1180" y="628" width="156" height="42" rx="14" class="accent"/><text x="1212" y="654" class="fg small">Create Product</text></g>
  <text x="80" y="930" class="muted tiny">Mockup: clarified product/app settings, product-first creation dialog, and action-oriented empty tab copy</text>
</svg>
